#!OML:ASF G:\ViconDB\ViconDB\414\test\team2\shane.ASF
:FULLY-SPECIFIED
:DEGREES
131
root 3.57007 16.1366 -18.2033 100.783 118.559 -56.5577
lowerback 3.01783 -1.16635 1.84256
upperback -3.96141 -1.13874 7.33605
thorax -5.72741 -0.477578 6.78502
lowerneck -25.7738 -5.82907 -5.52083
upperneck 19.1743 -7.43301 6.04014
head 10.8665 -3.05158 1.84051
rclavicle -5.80451e-014 2.78299e-014
rhumerus 61.5203 -14.3085 -50.2361
rradius 35.75
rwrist 15.8819
rhand -53.561 -67.8375
rfingers 7.12502
rthumb -26.003 -263.922
lclavicle -5.80451e-014 2.78299e-014
lhumerus 64.5255 17.5733 2.54467
lradius 31.8704
lwrist -20.6917
lhand -70.9244 228.476
lfingers 7.12502
lthumb -42.475 204.047
rfemur 4.70716 -14.7396 -16.9115
rtibia 33.9331
rfoot -13.3844 -14.9762
rtoes -12.4367
lfemur 15.4643 -16.9878 15.5146
ltibia 63.3648
lfoot 13.8465 -19.7493
ltoes -9.40688
132
root 3.64255 16.1853 -17.9819 101.679 120.423 -56.1754
lowerback 3.70998 -1.21824 2.20693
upperback -3.91724 -1.13399 7.60995
thorax -6.08513 -0.479068 6.90121
lowerneck -26.1926 -5.75754 -5.12998
upperneck 18.8101 -7.53276 6.30817
head 10.8101 -3.03651 1.84954
rclavicle -2.11507e-013 2.14687e-014
rhumerus 62.3366 -14.4843 -50.7024
rradius 34.963
rwrist 15.2404
rhand -53.3284 -68.1062
rfingers 7.12502
rthumb -25.7803 -263.621
lclavicle -2.11507e-013 2.14687e-014
lhumerus 65.0385 18.7746 1.33682
lradius 31.0962
lwrist -20.02
lhand -71.4505 230.377
lfingers 7.12502
lthumb -42.9673 206.12
rfemur 2.38094 -15.2353 -17.2705
rtibia 33.9988
rfoot -14.4603 -16.0183
rtoes -12.4464
lfemur 17.0861 -17.7276 13.043
ltibia 62.4362
lfoot 14.1349 -18.922
ltoes -9.35838
133
root 3.70259 16.214 -17.7598 102.818 121.888 -55.516
lowerback 4.20059 -1.23972 1.94966
upperback -3.8233 -1.14583 7.82189
thorax -6.26057 -0.465578 7.29982
lowerneck -26.4467 -5.50565 -4.57408
upperneck 18.2286 -7.34831 6.2161
head 10.6028 -2.93209 1.75446
rclavicle 1.08934e-013 8.74653e-014
rhumerus 62.8375 -14.7652 -50.7672
rradius 34.5739
rwrist 14.0121
rhand -53.2064 -68.2893
rfingers 7.12502
rthumb -25.6635 -263.421
lclavicle 1.08934e-013 8.74653e-014
lhumerus 65.2484 20.175 0.456195
lradius 30.4225
lwrist -19.775
lhand -71.9736 238.219
lfingers 7.12502
lthumb -43.4562 214.137
rfemur -0.177344 -15.7153 -18.0848
rtibia 34.3746
rfoot -15.408 -16.8309
rtoes -10.3152
lfemur 18.6026 -18.3189 9.95024
ltibia 61.5203
lfoot 14.3793 -18.2174
ltoes -9.29619
134
root 3.76129 16.2259 -17.5515 103.88 123.194 -54.8725
lowerback 4.84358 -1.23456 1.6141
upperback -3.64913 -1.12972 7.94303
thorax -6.441 -0.437082 7.64641
lowerneck -26.8971 -5.31244 -4.29766
upperneck 17.4995 -7.21255 6.46713
head 10.408 -2.82739 1.8167
rclavicle 1.11319e-014 -3.18055e-015
rhumerus 63.8288 -15.206 -51.6221
rradius 33.8653
rwrist 13.8186
rhand -52.999 -68.5711
rfingers 7.12502
rthumb -25.4648 -263.11
lclavicle 1.11319e-014 -3.18055e-015
lhumerus 66.2843 22.2212 1.76015
lradius 29.6145
lwrist -20.4632
lhand -73.2498 250.829
lfingers 7.12502
lthumb -44.6466 227.192
rfemur -3.01966 -16.4157 -19.0286
rtibia 35.148
rfoot -16.2581 -17.77
rtoes -10.7038
lfemur 19.8709 -18.8785 6.7128
ltibia 60.5739
lfoot 15.2818 -17.4245
ltoes -7.70243
135
root 3.83791 16.2515 -17.3343 104.706 124.952 -54.2789
lowerback 5.86089 -1.20595 1.65834
upperback -3.3809 -1.0382 8.18073
thorax -6.75329 -0.385565 7.90922
lowerneck -27.3074 -5.13287 -3.84282
upperneck 16.6971 -7.04686 6.2798
head 10.1512 -2.75441 1.69932
rclavicle 2.66371e-013 7.95139e-015
rhumerus 65.0394 -15.6982 -52.5379
rradius 33.1318
rwrist 13.396
rhand -52.8385 -68.924
rfingers 7.12502
rthumb -25.3111 -262.735
lclavicle 2.66371e-013 7.95139e-015
lhumerus 66.9294 24.7785 2.8904
lradius 28.6602
lwrist -20.866
lhand -73.1909 84.8691
lfingers 7.12502
lthumb -44.5918 251.472
rfemur -6.04552 -16.5867 -19.4386
rtibia 36.2725
rfoot -17.6263 -18.4646
rtoes -8.35257
lfemur 21.0927 -18.7321 4.40268
ltibia 59.7082
lfoot 15.2383 -17.7991
ltoes -9.00111
136
root 3.9015 16.2644 -17.1279 105.707 127.108 -53.4534
lowerback 6.78053 -1.09392 2.18317
upperback -3.02219 -0.810878 8.44232
thorax -6.93567 -0.297102 7.89426
lowerneck -27.8479 -5.0865 -3.68277
upperneck 16.0059 -7.06932 6.57152
head 10.0021 -2.72445 1.76705
rclavicle 3.97569e-014 8.42847e-014
rhumerus 66.1378 -16.129 -53.2038
rradius 32.4338
rwrist 12.7261
rhand -52.5408 -69.5873
rfingers 7.12502
rthumb -25.0258 -262.032
lclavicle 3.97569e-014 8.42847e-014
lhumerus 68.2434 27.1131 4.97955
lradius 27.9143
lwrist -21.9633
lhand -72.6005 61.4222
lfingers 7.12502
lthumb -44.0414 85.2896
rfemur -9.61751 -17.5028 -19.2913
rtibia 37.715
rfoot -18.7132 -18.9881
rtoes -9.70398
lfemur 22.2324 -18.5759 2.41412
ltibia 58.8086
lfoot 15.7006 -17.4586
ltoes -8.83061
137
root 3.98346 16.2788 -16.9145 106.643 129.378 -52.6378
lowerback 7.87987 -1.00686 2.7201
upperback -2.65387 -0.589349 8.79619
thorax -7.20891 -0.208092 7.98241
lowerneck -28.5318 -5.01331 -3.35625
upperneck 15.5078 -6.91954 6.02495
head 9.88903 -2.69941 1.53879
rclavicle 2.8625e-014 4.13472e-014
rhumerus 67.1448 -16.3668 -53.6921
rradius 32.2038
rwrist 12.0615
rhand -52.3013 -70.5612
rfingers 7.12502
rthumb -24.7963 -261.026
lclavicle 2.8625e-014 4.13472e-014
lhumerus 69.1569 29.4155 6.83417
lradius 27.8065
lwrist -22.4322
lhand -71.7388 47.1769
lfingers 7.12502
lthumb -43.2368 71.3387
rfemur -13.2543 -18.1457 -18.9885
rtibia 39.3347
rfoot -20.3402 -19.1966
rtoes -9.52296
lfemur 23.0874 -18.2627 0.852999
ltibia 58.0184
lfoot 16.3206 -16.8363
ltoes -8.69479
138
root 4.06127 16.2815 -16.7098 108.051 131.174 -51.3857
lowerback 8.78235 -0.880822 2.93984
upperback -2.30072 -0.362812 8.89828
thorax -7.37863 -0.109798 7.96023
lowerneck -29.0351 -4.85022 -3.38099
upperneck 14.7241 -6.61861 5.99991
head 9.67331 -2.56887 1.5814
rclavicle -1.89243e-013 1.74931e-014
rhumerus 68.0925 -16.4873 -54.0664
rradius 32.0455
rwrist 11.0304
rhand -52.2319 -70.7112
rfingers 7.12502
rthumb -24.7298 -260.867
lclavicle -1.89243e-013 1.74931e-014
lhumerus 69.1854 31.5101 7.91752
lradius 28.6809
lwrist -21.52
lhand -70.862 38.8288
lfingers 7.12502
lthumb -42.4166 63.2777
rfemur -17.4403 -19.4431 -19.1621
rtibia 41.091
rfoot -21.5154 -18.9788
rtoes -10.0163
lfemur 23.6271 -17.561 -1.25211
ltibia 57.2797
lfoot 16.7054 -15.4813
ltoes -8.85766
139
root 4.14351 16.287 -16.512 109.157 133.007 -50.483
lowerback 9.66172 -0.806698 3.44414
upperback -1.94677 -0.169513 8.96487
thorax -7.5286 -0.041602 7.73341
lowerneck -29.4033 -4.72794 -3.29787
upperneck 13.9754 -6.35419 5.69708
head 9.43457 -2.48327 1.50423
rclavicle 1.4551e-013 6.67916e-014
rhumerus 68.9666 -16.6524 -54.2154
rradius 32.0285
rwrist 10.2957
rhand -51.9179 -71.3873
rfingers 7.12502
rthumb -24.4288 -260.15
lclavicle 1.4551e-013 6.67916e-014
lhumerus 70.8041 33.2863 11.6065
lradius 29.15
lwrist -22.0028
lhand -69.6633 33.3633
lfingers 7.12502
lthumb -41.2928 58.1859
rfemur -21.6699 -20.9307 -19.1506
rtibia 43.0278
rfoot -22.5614 -18.4276
rtoes -9.9078
lfemur 23.7624 -16.7151 -2.92326
ltibia 56.7238
lfoot 16.6608 -14.2578
ltoes -8.84064
140
root 4.22613 16.2891 -16.3139 109.834 135.029 -49.746
lowerback 10.9416 -0.722851 4.16892
upperback -1.55345 0.104476 9.04273
thorax -7.87059 0.0564144 7.3917
lowerneck -30.0179 -4.56017 -3.33698
upperneck 13.5192 -6.03023 5.58455
head 9.3491 -2.3401 1.52119
rclavicle 1.28017e-013 7.95139e-015
rhumerus 69.5712 -16.8553 -54.1372
rradius 32.22
rwrist 9.28426
rhand -51.6902 -71.992
rfingers 7.12502
rthumb -24.2105 -259.516
lclavicle 1.28017e-013 7.95139e-015
lhumerus 69.3418 34.9424 11.3816
lradius 30.5233
lwrist -18.9797
lhand -68.5872 34.1424
lfingers 7.12502
lthumb -40.2818 59.2829
rfemur -25.8922 -22.5833 -18.8702
rtibia 45.0775
rfoot -23.2086 -17.9541
rtoes -10.1119
lfemur 23.8818 -15.9277 -4.3401
ltibia 56.2863
lfoot 17.0779 -12.0378
ltoes -7.03019
141
root 4.31757 16.2939 -16.1081 110.276 137.115 -49.2338
lowerback 11.9206 -0.642347 4.82451
upperback -1.03099 0.331923 9.13638
thorax -7.88514 0.13011 7.09084
lowerneck -30.3378 -4.51131 -3.59632
upperneck 12.8109 -5.84032 5.79289
head 9.1534 -2.24133 1.66688
rclavicle -1.64594e-013 -3.02153e-014
rhumerus 70.3118 -17.2807 -54.127
rradius 32.201
rwrist 8.65018
rhand -51.4559 -72.2024
rfingers 7.12502
rthumb -23.9859 -259.276
lclavicle -1.64594e-013 -3.02153e-014
lhumerus 68.4375 36.5338 11.8464
lradius 30.6421
lwrist -17.5417
lhand -67.9299 35.7931
lfingers 7.12502
lthumb -39.6631 61.1199
rfemur -30.2801 -24.3539 -18.2763
rtibia 47.3274
rfoot -24.0995 -17.1478
rtoes -9.86479
lfemur 23.6809 -14.6805 -4.95414
ltibia 55.9828
lfoot 16.7176 -10.4056
ltoes -6.27798
142
root 4.40919 16.2885 -15.8979 110.72 139.212 -48.8068
lowerback 12.712 -0.497259 5.41501
upperback -0.611775 0.629782 9.16542
thorax -7.90163 0.239345 6.7367
lowerneck -30.2356 -4.51908 -3.336
upperneck 11.8224 -5.7578 5.42303
head 8.76182 -2.18126 1.52393
rclavicle 1.18476e-013 1.43125e-014
rhumerus 70.7971 -17.8089 -54.0298
rradius 32.3147
rwrist 7.27854
rhand -51.5352 -72.8673
rfingers 7.12502
rthumb -24.0619 -258.621
lclavicle 1.18476e-013 1.43125e-014
lhumerus 65.2835 37.1977 9.23802
lradius 30.6539
lwrist -12.9217
lhand -68.321 40.1654
lfingers 7.12502
lthumb -40.0314 65.382
rfemur -34.9159 -25.8981 -17.4543
rtibia 49.6292
rfoot -24.8567 -17.0051
rtoes -9.25162
lfemur 23.156 -13.304 -5.26303
ltibia 55.7524
lfoot 16.1576 -8.3944
ltoes -5.78975
143
root 4.50257 16.2784 -15.6894 110.869 141.422 -48.524
lowerback 13.4914 -0.40406 6.1441
upperback -0.0176983 0.86194 9.22941
thorax -7.70553 0.312669 6.34323
lowerneck -30.5168 -4.38916 -3.23537
upperneck 11.1256 -5.50756 4.93312
head 8.52558 -2.1317 1.37656
rclavicle -6.36111e-014 8.5875e-014
rhumerus 71.8422 -18.3025 -55.0028
rradius 32.0748
rwrist 7.15789
rhand -51.3046 -72.9064
rfingers 7.12502
rthumb -23.8407 -258.553
lclavicle -6.36111e-014 8.5875e-014
lhumerus 61.2548 37.6591 6.22934
lradius 30.4409
lwrist -9.15388
lhand -68.396 48.6176
lfingers 7.12502
lthumb -40.1019 73.8129
rfemur -39.6644 -27.4187 -16.349
rtibia 51.9935
rfoot -25.542 -16.8749
rtoes -10.138
lfemur 22.6854 -11.6882 -5.09759
ltibia 55.5418
lfoot 15.3099 -6.67794
ltoes -4.60831
